<svg xmlns="http://www.w3.org/2000/svg" xmlns:xlink="http://www.w3.org/1999/xlink" version="1.1" width="256" height="256" viewBox="0 0 256 256" xml:space="preserve">

<defs>
</defs>
<g style="stroke: none; stroke-width: 0; stroke-dasharray: none; stroke-linecap: butt; stroke-linejoin: miter; stroke-miterlimit: 10; fill: none; fill-rule: nonzero; opacity: 1;" transform="translate(1.4065934065934016 1.4065934065934016) scale(2.81 2.81)" >
	<path d="M 80.852 81.852 H 61.785 c -0.553 0 -1 -0.447 -1 -1 s 0.447 -1 1 -1 h 18.066 V 61.785 c 0 -0.553 0.447 -1 1 -1 s 1 0.447 1 1 v 19.066 C 81.852 81.404 81.404 81.852 80.852 81.852 z" style="stroke: none; stroke-width: 1; stroke-dasharray: none; stroke-linecap: butt; stroke-linejoin: miter; stroke-miterlimit: 10; fill: rgb(0,0,0); fill-rule: nonzero; opacity: 1;" transform=" matrix(1 0 0 1 0 0) " stroke-linecap="round" />
	<path d="M 28.215 81.852 H 9.148 c -0.552 0 -1 -0.447 -1 -1 V 61.785 c 0 -0.553 0.448 -1 1 -1 s 1 0.447 1 1 v 18.066 h 18.067 c 0.552 0 1 0.447 1 1 S 28.767 81.852 28.215 81.852 z" style="stroke: none; stroke-width: 1; stroke-dasharray: none; stroke-linecap: butt; stroke-linejoin: miter; stroke-miterlimit: 10; fill: rgb(0,0,0); fill-rule: nonzero; opacity: 1;" transform=" matrix(1 0 0 1 0 0) " stroke-linecap="round" />
	<path d="M 9.148 29.215 c -0.552 0 -1 -0.448 -1 -1 V 9.148 c 0 -0.552 0.448 -1 1 -1 h 19.067 c 0.552 0 1 0.448 1 1 s -0.448 1 -1 1 H 10.148 v 18.067 C 10.148 28.767 9.7 29.215 9.148 29.215 z" style="stroke: none; stroke-width: 1; stroke-dasharray: none; stroke-linecap: butt; stroke-linejoin: miter; stroke-miterlimit: 10; fill: rgb(0,0,0); fill-rule: nonzero; opacity: 1;" transform=" matrix(1 0 0 1 0 0) " stroke-linecap="round" />
	<path d="M 80.852 29.215 c -0.553 0 -1 -0.448 -1 -1 V 10.148 H 61.785 c -0.553 0 -1 -0.448 -1 -1 s 0.447 -1 1 -1 h 19.066 c 0.553 0 1 0.448 1 1 v 19.067 C 81.852 28.767 81.404 29.215 80.852 29.215 z" style="stroke: none; stroke-width: 1; stroke-dasharray: none; stroke-linecap: butt; stroke-linejoin: miter; stroke-miterlimit: 10; fill: rgb(0,0,0); fill-rule: nonzero; opacity: 1;" transform=" matrix(1 0 0 1 0 0) " stroke-linecap="round" />
	<path d="M 89 46 H 1 c -0.552 0 -1 -0.448 -1 -1 s 0.448 -1 1 -1 h 88 c 0.553 0 1 0.448 1 1 S 89.553 46 89 46 z" style="stroke: none; stroke-width: 1; stroke-dasharray: none; stroke-linecap: butt; stroke-linejoin: miter; stroke-miterlimit: 10; fill: rgb(0,0,0); fill-rule: nonzero; opacity: 1;" transform=" matrix(1 0 0 1 0 0) " stroke-linecap="round" />
</g>
</svg>